<?xml version="1.0" encoding="utf-8" ?>
<svg xmlns="http://www.w3.org/2000/svg" xmlns:ev="http://www.w3.org/2001/xml-events" xmlns:xlink="http://www.w3.org/1999/xlink" baseProfile="full" height="100%" version="1.1" viewBox="0 0 1060 410" width="100%" x="0px" y="0px">
  <defs>
    <clipPath id="logo_clip" transform="translate(205,205)">
      <circle cx="160.0" cy="0.0" r="35"/>
      <polygon points="152.81198914858916,-4.1499999999999995 72.81198914858918,134.41406460551016 87.18801085141085,142.71406460551017 167.18801085141084,4.149999999999999"/>
      <circle cx="80.00000000000001" cy="138.56406460551017" r="35"/>
      <polygon points="80.00000000000001,130.26406460551016 -79.99999999999997,130.26406460551019 -79.99999999999997,146.8640646055102 80.00000000000001,146.86406460551018"/>
      <circle cx="-79.99999999999997" cy="138.5640646055102" r="35"/>
      <polygon points="-72.81198914858913,134.4140646055102 -152.81198914858916,-4.149999999999981 -167.18801085141084,4.150000000000023 -87.18801085141081,142.7140646055102"/>
      <circle cx="-160.0" cy="1.9594348786357652e-14" r="35"/>
      <polygon points="-167.18801085141084,-4.149999999999977 -87.18801085141091,-142.71406460551015 -72.81198914858923,-134.41406460551013 -152.81198914858916,4.150000000000017"/>
      <circle cx="-80.00000000000007" cy="-138.56406460551014" r="35"/>
      <polygon points="-80.00000000000007,-146.86406460551015 79.99999999999989,-146.86406460551026 79.99999999999989,-130.26406460551024 -80.00000000000007,-130.26406460551013"/>
      <circle cx="79.99999999999989" cy="-138.56406460551025" r="35"/>
      <polygon points="87.18801085141072,-142.71406460551026 167.18801085141084,-4.150000000000002 152.81198914858916,4.150000000000003 72.81198914858905,-134.41406460551025"/>
      <polygon points="155.85,-7.18801085141084 -84.14999999999998,131.37605375409936 -75.84999999999997,145.75207545692103 164.15,7.188010851410841"/>
      <polygon points="-71.69999999999997,138.5640646055102 -71.70000000000007,-138.56406460551014 -88.30000000000007,-138.56406460551014 -88.29999999999997,138.5640646055102"/>
      <polygon points="-75.85000000000007,-145.75207545692098 164.15,-7.188010851410842 155.85,7.188010851410842 -84.15000000000006,-131.3760537540993"/>
      <polygon points="-40.000000000000036,-69.28203230275507 -40.000000000000036,-41.569219381653035 7.999999999999972,-41.569219381653035"/>
      <polygon points="-39.999999999999986,69.2820323027551 -39.999999999999986,41.56921938165306 8.000000000000021,41.56921938165306"/>
      <polygon points="80.0,0.0 56.0,13.856406460551018 -39.999999999999986,13.856406460551018 -39.999999999999986,-13.856406460551018 56.0,-13.856406460551018"/>
    </clipPath>
    <clipPath id="background_clip" transform="translate(205,205)">
      <circle cx="160.0" cy="0.0" r="45"/>
      <circle cx="80.00000000000001" cy="138.56406460551017" r="45"/>
      <circle cx="-79.99999999999997" cy="138.5640646055102" r="45"/>
      <circle cx="-160.0" cy="1.9594348786357652e-14" r="45"/>
      <circle cx="-80.00000000000007" cy="-138.56406460551014" r="45"/>
      <circle cx="79.99999999999989" cy="-138.56406460551025" r="45"/>
      <polygon points="181.1310198523403,0.0 90.56550992617017,156.86406460551018 -90.56550992617011,156.86406460551018 -181.1310198523403,2.2182152368846426e-14 -90.56550992617024,-156.86406460551012 90.56550992617004,-156.86406460551026"/>
    </clipPath>
    <linearGradient gradientUnits="userSpaceOnUse" id="gradient" x1="0" x2="410" y1="0" y2="0">
      <stop offset="0" stop-color="#2f38c2"/>
      <stop offset="0.09090909090909091" stop-color="#2f33c3"/>
      <stop offset="0.18181818181818182" stop-color="#3930c5"/>
      <stop offset="0.2727272727272727" stop-color="#4d30c8"/>
      <stop offset="0.36363636363636365" stop-color="#6831cd"/>
      <stop offset="0.4545454545454546" stop-color="#8832d1"/>
      <stop offset="0.5454545454545454" stop-color="#aa33d6"/>
      <stop offset="0.6363636363636364" stop-color="#cc33da"/>
      <stop offset="0.7272727272727273" stop-color="#df34d2"/>
      <stop offset="0.8181818181818182" stop-color="#e235be"/>
      <stop offset="0.9090909090909092" stop-color="#e435b0"/>
      <stop offset="1" stop-color="#e535ab"/>
    </linearGradient>
  </defs>
  <rect clip-path="url(#background_clip)" fill="white" height="410" width="410" x="0" y="0"/>
  <rect clip-path="url(#logo_clip)" fill="url(#gradient)" height="410" width="410" x="0" y="0"/>
  <text id="Fast-GraphQL" xml:space="preserve"><tspan x="428" y="160" font-family="Verdana" font-size="144" font-style="italic" fill="#3133c3" xml:space="preserve">Fast</tspan><tspan x="428" y="325" font-style="italic" font-family="Verdana" font-size="144" fill="#3133c3" xml:space="preserve">GraphQL</tspan></text>
</svg>
